<?xml version="1.0" encoding="UTF-8"?>
<svg version="1.1" xmlns="http://www.w3.org/2000/svg" width="256" height="256">
<path d="M0 0 C6.10005625 3.71262044 9.7890336 8.28377602 12.25 14.9375 C12.84167969 14.52757813 13.43335938 14.11765625 14.04296875 13.6953125 C15.22826172 12.88707031 15.22826172 12.88707031 16.4375 12.0625 C17.21480469 11.52882813 17.99210938 10.99515625 18.79296875 10.4453125 C24.76387262 6.78113302 30.32728912 5.91379019 37.25 6.9375 C40.42340476 8.59506481 42.62654303 10.69058605 44.25 13.9375 C45.39631676 23.87850932 41.92289756 31.03596411 36.25 38.9375 C37.44625 39.453125 38.6425 39.96875 39.875 40.5 C46.22825952 43.69349682 49.95300151 48.40886431 52.63696289 54.96801758 C55.23376086 63.31065765 54.34487024 73.86106589 50.75 81.6875 C47.74544723 86.79382912 44.37514953 90.02968271 39.25 92.9375 C38.62222656 93.31261719 37.99445313 93.68773438 37.34765625 94.07421875 C27.75926959 99.34881182 17.78025381 100.44019913 7 100.3125 C5.81647949 100.30742432 4.63295898 100.30234863 3.41357422 100.29711914 C-4.3191303 100.18634908 -11.4627003 99.4819946 -18.9296875 97.49609375 C-22.05944063 96.8762119 -23.76396011 96.81161611 -26.75 97.9375 C-28.99578929 100.09939655 -28.99578929 100.09939655 -31 102.875 C-33.97263939 106.689231 -36.97913552 110.3750025 -40.25 113.9375 C-43.36458668 117.35489372 -46.3418662 120.8427235 -49.25 124.4375 C-52.86032442 128.90026213 -56.63427929 133.16469533 -60.5 137.40625 C-63.61258505 140.90790818 -66.53479997 144.55320714 -69.48046875 148.1953125 C-72.44805365 151.78093143 -75.55985185 155.22036231 -78.70703125 158.6484375 C-83.31535462 163.64202759 -83.31535462 163.64202759 -86 169.75 C-90.27000744 181.83321254 -104.74121766 188.18386157 -115.49252319 193.37083435 C-118.9832141 194.95366037 -122.16763765 196.10977039 -125.96972656 196.65844727 C-144.04804591 199.64943234 -154.90924546 213.72835981 -166.82049561 226.45471191 C-171.42232637 231.36240698 -176.07569404 236.22019493 -180.75116539 241.05766678 C-182.365923 242.7435688 -183.9545168 244.45134791 -185.54170227 246.16317749 C-186.52673614 247.19599463 -187.51254933 248.22806927 -188.49926758 249.25927734 C-189.34717361 250.16495453 -190.19507965 251.07063171 -191.06867981 252.00375366 C-194.51702103 254.49066934 -196.58825577 254.46438987 -200.75 253.9375 C-202.75 251.9375 -202.75 251.9375 -203.16738892 248.64067078 C-202.64615907 244.01619931 -201.43321775 242.83378912 -198.07177734 239.68676758 C-197.32545547 238.97264458 -197.32545547 238.97264458 -196.5640564 238.24409485 C-195.48446959 237.21445511 -194.39718875 236.19283525 -193.30320358 235.17850685 C-191.55978098 233.55771455 -189.84312316 231.91252742 -188.13150024 230.25822449 C-183.26328216 225.56024597 -178.35884869 220.90161812 -173.41943359 216.27856445 C-154.11351203 198.76128964 -154.11351203 198.76128964 -145.10076904 174.90890503 C-144.33262409 170.59174862 -142.31430417 166.70862405 -140.375 162.8125 C-139.9948877 162.03173096 -139.61477539 161.25096191 -139.22314453 160.4465332 C-134.47227798 150.9911452 -127.68701743 140.66926104 -117.4765625 136.6484375 C-113.17972566 134.86928293 -110.09826343 132.10430093 -106.6875 129 C-105.3650017 127.82504976 -104.04207526 126.65058127 -102.71875 125.4765625 C-102.05617188 124.88391602 -101.39359375 124.29126953 -100.7109375 123.68066406 C-97.73793543 121.03783105 -94.71426982 118.45586368 -91.6875 115.875 C-90.5297987 114.88428893 -89.37224658 113.89340349 -88.21484375 112.90234375 C-87.64362793 112.41362793 -87.07241211 111.92491211 -86.48388672 111.42138672 C-84.15529839 109.42854529 -81.82829738 107.43385582 -79.50146484 105.43896484 C-78.33660944 104.44037817 -77.17157121 103.44200472 -76.00634766 102.44384766 C-73.04911478 99.91037723 -70.09452942 97.37392376 -67.14453125 94.83203125 C-66.550354 94.32124023 -65.95617676 93.81044922 -65.34399414 93.28417969 C-64.16739676 92.27092247 -62.99334843 91.25469683 -61.82202148 90.23535156 C-59.08179722 87.8650478 -56.32679348 85.58933933 -53.390625 83.46484375 C-50.61701596 81.41279544 -48.08172326 79.48032578 -45.75 76.9375 C-45.45895283 73.32851506 -45.62759232 72.15814547 -46.75 68.9375 C-48.63208193 60.94942074 -49.08661501 53.1846327 -49.0625 45 C-49.07861328 43.91009766 -49.09472656 42.82019531 -49.11132812 41.69726562 C-49.11879381 29.13252521 -46.31152616 14.87280416 -37.4140625 5.3203125 C-27.20003471 -3.16740073 -12.27494623 -5.56266445 0 0 Z " fill="#D22F2F" transform="translate(202.75,2.0625)"/>
<path d="M0 0 C-0.350625 1.010625 -0.70125 2.02125 -1.0625 3.0625 C-2.1892448 6.92337378 -1.80531717 10.05394586 -1 14 C4.34001821 15.33500455 7.83955235 14.512545 13 13 C13 20.54351605 8.79532013 24.53216546 4 30 C2.99903974 31.16063087 1.99909428 32.32213747 1 33.484375 C-1.20421434 36.04223178 -3.4171868 38.59214407 -5.63671875 41.13671875 C-8.7977507 44.76242149 -11.93497211 48.40788381 -15.0625 52.0625 C-15.55331055 52.63581055 -16.04412109 53.20912109 -16.54980469 53.79980469 C-17.53869602 54.95513664 -18.5274659 56.11057257 -19.51611328 57.26611328 C-22.00895527 60.1789405 -24.50466074 63.08931221 -27 66 C-27.49000488 66.57177979 -27.98000977 67.14355957 -28.48486328 67.73266602 C-31.07064373 70.74997563 -33.65754911 73.76631131 -36.24609375 76.78125 C-36.78041016 77.40386719 -37.31472656 78.02648437 -37.86523438 78.66796875 C-38.87790832 79.84795404 -39.89090404 81.02766329 -40.90429688 82.20703125 C-41.82534463 83.28051946 -42.74428559 84.35581967 -43.66088867 85.43310547 C-44.56961161 86.49640243 -45.48677257 87.55253445 -46.41137695 88.60205078 C-48.72070942 91.2656724 -50.4634033 93.43431249 -51.3125 96.875 C-55.05312362 107.72487515 -67.50630568 113.84519773 -77.11367798 118.67494202 C-81.74577336 120.92913853 -86.08046641 122.97930411 -91.21972656 123.72094727 C-109.29804591 126.71193234 -120.15924546 140.79085981 -132.07049561 153.51721191 C-136.67232637 158.42490698 -141.32569404 163.28269493 -146.00116539 168.12016678 C-147.615923 169.8060688 -149.2045168 171.51384791 -150.79170227 173.22567749 C-151.77673614 174.25849463 -152.76254933 175.29056927 -153.74926758 176.32177734 C-154.59717361 177.22745453 -155.44507965 178.13313171 -156.31867981 179.06625366 C-159.76702103 181.55316934 -161.83825577 181.52688987 -166 181 C-168 179 -168 179 -168.41738892 175.70317078 C-167.89615907 171.07869931 -166.68321775 169.89628912 -163.32177734 166.74926758 C-162.57545547 166.03514458 -162.57545547 166.03514458 -161.8140564 165.30659485 C-160.73446959 164.27695511 -159.64718875 163.25533525 -158.55320358 162.24100685 C-156.80978098 160.62021455 -155.09312316 158.97502742 -153.38150024 157.32072449 C-148.51328216 152.62274597 -143.60884869 147.96411812 -138.66943359 143.34106445 C-119.36351203 125.82378964 -119.36351203 125.82378964 -110.35076904 101.97140503 C-109.58262409 97.65424862 -107.56430417 93.77112405 -105.625 89.875 C-105.2448877 89.09423096 -104.86477539 88.31346191 -104.47314453 87.5090332 C-99.72227798 78.0536452 -92.93701743 67.73176104 -82.7265625 63.7109375 C-78.42972566 61.93178293 -75.34826343 59.16680093 -71.9375 56.0625 C-70.6150017 54.88754976 -69.29207526 53.71308127 -67.96875 52.5390625 C-67.30617188 51.94641602 -66.64359375 51.35376953 -65.9609375 50.74316406 C-62.98793543 48.10033105 -59.96426982 45.51836368 -56.9375 42.9375 C-55.7797987 41.94678893 -54.62224658 40.95590349 -53.46484375 39.96484375 C-52.60802002 39.23177002 -52.60802002 39.23177002 -51.73388672 38.48388672 C-49.40538559 36.49111991 -47.07847724 34.4964986 -44.75170898 32.50170898 C-43.58599385 31.50236211 -42.42014145 30.50317532 -41.25415039 29.50415039 C-38.31046576 26.98187398 -35.36851369 24.45762374 -32.4296875 21.9296875 C-28.95934662 18.94581193 -25.48293061 15.96917075 -22 13 C-21.15912842 12.28287842 -21.15912842 12.28287842 -20.30126953 11.55126953 C-18.68373492 10.17553864 -17.06155369 8.80552521 -15.4375 7.4375 C-14.04337891 6.25994141 -14.04337891 6.25994141 -12.62109375 5.05859375 C-8.38953917 1.73515222 -5.50280318 -0.47166884 0 0 Z " fill="#455A64" transform="translate(168,75)"/>
<path d="M0 0 C5.53098957 3.39119395 9.34476591 7.05751451 11.3046875 13.29296875 C11.25 16.9375 11.25 16.9375 10.1394043 18.49707031 C8.43925936 20.08348524 6.67380677 21.48128698 4.8125 22.875 C3.50351482 23.92628024 2.1962119 24.97965865 0.890625 26.03515625 C0.25705078 26.5367627 -0.37652344 27.03836914 -1.02929688 27.55517578 C-14.42479585 38.31642936 -24.78452704 53.8741551 -32.3125 69.125 C-34.15737362 72.54583346 -34.53023448 72.84656255 -38.375 74.4375 C-39.48875 74.6025 -40.6025 74.7675 -41.75 74.9375 C-43.235 75.4325 -43.235 75.4325 -44.75 75.9375 C-47.78103359 65.46419644 -49.15609834 55.48242792 -49.1875 44.5625 C-49.19716797 43.49467285 -49.20683594 42.4268457 -49.21679688 41.32666016 C-49.08650946 28.91678363 -46.18734158 14.73947715 -37.4140625 5.3203125 C-27.20003471 -3.16740073 -12.27494623 -5.56266445 0 0 Z " fill="#F34235" transform="translate(202.75,2.0625)"/>
<path d="M0 0 C6.02351105 2.68906743 10.75114226 6.55460821 14 12.375 C17.12617803 20.59881969 16.89628029 30.83858821 14.4296875 39.18359375 C11.42651477 45.75611113 7.76502696 50.00795909 1.5 53.5625 C0.87222656 53.93761719 0.24445313 54.31273437 -0.40234375 54.69921875 C-9.90379358 59.92598768 -19.87430519 61.09194805 -30.5625 61 C-32.32074097 60.99516602 -32.32074097 60.99516602 -34.11450195 60.99023438 C-43.9735653 60.83360199 -53.05997902 59.32663686 -62.5 56.5625 C-62.30723572 52.7152462 -61.49890664 49.87087558 -59.5 46.5625 C-55.30772822 43.20894926 -50.25365399 41.02674174 -45.48583984 38.61523438 C-31.31766385 31.10439409 -16.82387218 17.89730528 -7.4375 5 C-3.98635976 0.64066496 -3.98635976 0.64066496 0 0 Z " fill="#F34235" transform="translate(240.5,41.4375)"/>
<path d="M0 0 C0.30164062 0.62648437 0.60328125 1.25296875 0.9140625 1.8984375 C2.86337068 5.67083967 5.24978819 7.19434246 9 9 C2.36169402 15.80057229 -4.29540518 22.5820136 -10.97718906 29.33987427 C-14.07931868 32.47851915 -17.17460983 35.62333177 -20.25512695 38.78320312 C-23.22886856 41.83306196 -26.21944158 44.86544471 -29.22239494 47.88653564 C-30.36441528 49.04147956 -31.50026123 50.20256297 -32.62970161 51.36981201 C-34.21445924 53.00547136 -35.81988601 54.61780604 -37.43188477 56.2265625 C-38.3401149 57.15033691 -39.24834503 58.07411133 -40.18409729 59.02587891 C-43.7184169 61.50365446 -45.76971326 61.54649157 -50 61 C-52 59 -52 59 -52.42333984 55.7230072 C-51.89028461 51.03512229 -50.56153843 49.71074331 -47.2265625 46.43188477 C-46.71937683 45.92367691 -46.21219116 45.41546906 -45.68963623 44.89186096 C-44.01748372 43.22456587 -42.32196689 41.58340625 -40.625 39.94140625 C-39.45762574 38.78709466 -38.29179263 37.63122256 -37.12744141 36.47386169 C-34.06509825 33.43819078 -30.9823199 30.42413017 -27.89477539 27.41412354 C-24.74533573 24.33640962 -21.61572461 21.23867649 -18.484375 18.14257812 C-12.34212529 12.07530539 -6.17813815 6.03072354 0 0 Z " fill="#AFBDC4" transform="translate(52,195)"/>
</svg>
