<svg width="24" height="25" viewBox="0 0 24 25" fill="none" xmlns="http://www.w3.org/2000/svg">
<path d="M12 22.5C14.6522 22.5 17.1957 21.4464 19.0711 19.5711C20.9464 17.6957 22 15.1522 22 12.5C22 9.84784 20.9464 7.3043 19.0711 5.42893C17.1957 3.55357 14.6522 2.5 12 2.5C9.34784 2.5 6.8043 3.55357 4.92893 5.42893C3.05357 7.3043 2 9.84784 2 12.5C2 15.1522 3.05357 17.6957 4.92893 19.5711C6.8043 21.4464 9.34784 22.5 12 22.5ZM12 4C13.6811 4 15.3245 4.49852 16.7223 5.43251C18.1202 6.3665 19.2096 7.69402 19.853 9.24719C20.4963 10.8004 20.6646 12.5094 20.3367 14.1583C20.0087 15.8071 19.1992 17.3217 18.0104 18.5104C16.8217 19.6992 15.3071 20.5087 13.6583 20.8367C12.0094 21.1646 10.3004 20.9963 8.74719 20.353C7.19402 19.7096 5.8665 18.6202 4.93251 17.2223C3.99852 15.8245 3.5 14.1811 3.5 12.5C3.50265 10.2465 4.39903 8.086 5.99252 6.49252C7.586 4.89903 9.74647 4.00265 12 4Z" fill="black"/>
<path d="M12.8797 14.186L13.1157 6.98804H10.8997L11.0997 14.186H12.8797ZM11.9907 18.012C12.1621 18.0178 12.333 17.9892 12.4932 17.9278C12.6534 17.8665 12.7997 17.7737 12.9234 17.6548C13.0471 17.536 13.1458 17.3936 13.2136 17.236C13.2813 17.0784 13.3168 16.9088 13.318 16.7373C13.3191 16.5657 13.2859 16.3957 13.2202 16.2372C13.1545 16.0787 13.0577 15.935 12.9356 15.8146C12.8135 15.6941 12.6684 15.5993 12.5091 15.5359C12.3497 15.4724 12.1792 15.4415 12.0077 15.445C11.6733 15.4519 11.3547 15.589 11.1198 15.8272C10.8849 16.0653 10.7522 16.3858 10.75 16.7203C10.7478 17.0548 10.8762 17.3769 11.1079 17.6182C11.3397 17.8594 11.6564 18.0008 11.9907 18.012Z" fill="black"/>
</svg>
